<svg width="24" height="24" viewBox="0 0 24 24" fill="none" xmlns="http://www.w3.org/2000/svg">
<path d="M11.2084 1.02539C11.6087 0.506822 12.3913 0.506821 12.7916 1.02539L14.3267 3.01398C14.5784 3.34001 15.0042 3.47838 15.3995 3.36255L17.8103 2.65608C18.439 2.47185 19.0721 2.9318 19.0911 3.58663L19.1642 6.09776C19.1762 6.50947 19.4394 6.87171 19.8272 7.01033L22.1929 7.85583C22.8098 8.07631 23.0516 8.82052 22.6821 9.36149L21.2652 11.436C21.0329 11.7761 21.0329 12.2239 21.2652 12.564L22.6821 14.6385C23.0516 15.1795 22.8098 15.9237 22.1929 16.1442L19.8272 16.9897C19.4394 17.1283 19.1762 17.4905 19.1642 17.9022L19.0911 20.4134C19.0721 21.0682 18.439 21.5281 17.8103 21.3439L15.3995 20.6375C15.0042 20.5216 14.5784 20.66 14.3267 20.986L12.7916 22.9746C12.3913 23.4932 11.6087 23.4932 11.2084 22.9746L9.67329 20.986C9.4216 20.66 8.99576 20.5216 8.6005 20.6375L6.18968 21.3439C5.56101 21.5281 4.92795 21.0682 4.90889 20.4134L4.8358 17.9022C4.82382 17.4905 4.56063 17.1283 4.17278 16.9897L1.80714 16.1442C1.19024 15.9237 0.948434 15.1795 1.31792 14.6385L2.73479 12.564C2.96709 12.2239 2.96709 11.7761 2.73479 11.436L1.31792 9.36149C0.948434 8.82052 1.19024 8.07631 1.80714 7.85583L4.17278 7.01033C4.56063 6.87171 4.82382 6.50947 4.8358 6.09776L4.90889 3.58663C4.92795 2.9318 5.56101 2.47185 6.18968 2.65608L8.6005 3.36255C8.99576 3.47838 9.4216 3.34001 9.67329 3.01398L11.2084 1.02539Z" fill="#008115"/>
<path d="M8.99058 11.4243C10.4965 11.4087 11.5788 10.3821 11.5788 8.91986C11.5788 7.42655 10.4965 6.3999 8.99058 6.3999C7.46901 6.3999 6.40234 7.42655 6.40234 8.91986C6.40234 10.3821 7.46901 11.4398 8.99058 11.4243ZM8.47293 17.4442L16.6612 7.51989L15.469 6.55546L7.28078 16.4486L8.47293 17.4442ZM8.99058 9.91541C8.41019 9.89985 8.0494 9.6043 8.0494 8.91986C8.0494 8.25099 8.41019 7.90877 8.99058 7.90877C9.5396 7.90877 9.90038 8.25099 9.90038 8.91986C9.90038 9.6043 9.5396 9.93096 8.99058 9.91541ZM15.0141 17.5997C16.52 17.5842 17.6023 16.5575 17.6023 15.0953C17.6023 13.602 16.52 12.5754 15.0141 12.5754C13.4925 12.5754 12.4259 13.602 12.4259 15.0953C12.4259 16.5575 13.4925 17.6153 15.0141 17.5997ZM15.0298 16.0909C14.4494 16.0753 14.0886 15.7798 14.0886 15.0953C14.0886 14.4264 14.4494 14.0842 15.0298 14.0842C15.5788 14.0842 15.9396 14.4264 15.9396 15.0953C15.9396 15.7798 15.5788 16.1064 15.0298 16.0909Z" fill="white"/>
</svg>
