<svg width="73" height="73" viewBox="0 0 73 73" fill="none" xmlns="http://www.w3.org/2000/svg">
<mask id="mask0_5344_290704" style="mask-type:alpha" maskUnits="userSpaceOnUse" x="0" y="1" width="72" height="72">
<circle cx="36" cy="37" r="36" fill="#C4C4C4"/>
</mask>
<g mask="url(#mask0_5344_290704)">
<circle cx="36" cy="38" r="36" fill="#FFDFE4"/>
<g clip-path="url(#clip0_5344_290704)">
<path fill-rule="evenodd" clip-rule="evenodd" d="M63.1169 70.4111C63.2676 75.1005 63.3881 79.7181 63.4126 84.2167C59.1731 84.4774 53.4306 84.6266 50.6733 83.8031C45.9987 82.4094 42.7631 82.6209 28.4662 82.789C21.9283 82.8631 15.3908 82.6047 8.87891 82.0146C8.87891 79.8994 9.05406 77.4518 9.25559 75.3101C18.2714 70.8701 34.1277 66.7812 34.1277 66.7812L63.1094 70.4111H63.1169Z" fill="#B5302B"/>
<path d="M34.2616 8.30859H37.3428C39.4924 8.31156 41.5535 9.16721 43.0761 10.6887C44.5988 12.2103 45.4592 14.274 45.4697 16.4295V34.8074C45.4592 36.9629 44.5988 39.0267 43.0761 40.5482C41.5535 42.0697 39.4924 42.9254 37.3428 42.9284H34.2616C32.112 42.9254 30.0509 42.0697 28.5283 40.5482C27.0057 39.0267 26.1452 36.9629 26.1348 34.8074V16.4352C26.1452 14.2797 27.0057 12.2159 28.5283 10.6944C30.0509 9.17288 32.112 8.31723 34.2616 8.31427V8.30859ZM37.3428 9.83269H34.2616C32.5133 9.83617 30.8375 10.5333 29.6003 11.7719C28.363 13.0104 27.6649 14.6897 27.6584 16.4428V34.8206C27.6644 36.5739 28.3624 38.2534 29.5997 39.492C30.8371 40.7307 32.5132 41.4277 34.2616 41.4307H37.3428C39.0912 41.4277 40.7673 40.7307 42.0047 39.492C43.2421 38.2534 43.9401 36.5739 43.946 34.8206V16.4352C43.9396 14.6821 43.2414 13.0029 42.0042 11.7643C40.7669 10.5258 39.0911 9.82862 37.3428 9.82514V9.83269Z" fill="#85522C"/>
<path fill-rule="evenodd" clip-rule="evenodd" d="M11.6179 29.8896H60.9723L63.5902 80.2263H9L11.6179 29.8896Z" fill="#D18852"/>
<path d="M46.6126 47.3652L40.6325 41.3898C40.3805 41.1379 40.043 41 39.6865 41C39.3299 41 38.9924 41.1379 38.7405 41.3898L33.7349 46.4002L25.3922 54.7429C24.8693 55.2658 24.8693 56.1119 25.3922 56.6301L31.3675 62.6102C31.6195 62.8621 31.957 63 32.3135 63C32.6701 63 33.0076 62.8621 33.2595 62.6102L40.737 55.1327L46.6126 49.2571C47.1307 48.7342 47.1307 47.8881 46.6126 47.3652Z" fill="white"/>
<path d="M46.1886 47.793L40.2088 41.8132C39.9188 41.5232 39.453 41.5232 39.163 41.8132L32.7079 48.2778L39.7287 55.2986L46.1886 48.8387C46.4738 48.5488 46.4738 48.0782 46.1886 47.793ZM40.9313 49.5185C40.5938 49.856 40.147 50.0271 39.7049 50.0271C39.2628 50.0271 38.8208 49.8607 38.4785 49.5185C38.141 49.181 37.9699 48.7389 37.9699 48.2968C37.9699 47.8548 38.141 47.4079 38.4785 47.0704C38.816 46.733 39.2581 46.5618 39.7049 46.5618C40.147 46.5618 40.5891 46.7282 40.9313 47.0704C41.2688 47.4079 41.4399 47.85 41.4399 48.2921C41.4399 48.7389 41.2688 49.181 40.9313 49.5185Z" fill="#E31937"/>
<path d="M25.8159 55.1661C25.5259 55.456 25.5259 55.9219 25.8159 56.2118L31.7909 62.1869C31.9335 62.3295 32.1236 62.4008 32.3138 62.4008C32.5039 62.4008 32.6893 62.3295 32.8367 62.1869L39.2965 55.727L32.271 48.7109L25.8159 55.1661ZM30.9876 56.8868C30.6501 57.2243 30.2033 57.3907 29.7612 57.3907C29.3191 57.3907 28.8771 57.2196 28.5348 56.8868C28.1973 56.5493 28.0309 56.1073 28.0309 55.6652C28.0309 55.2231 28.1973 54.7763 28.5348 54.4388C28.8723 54.1013 29.3144 53.9349 29.7612 53.9349C30.2033 53.9349 30.6501 54.1061 30.9876 54.4436C31.3251 54.781 31.4914 55.2279 31.4914 55.6699C31.4962 56.1073 31.3251 56.5541 30.9876 56.8868ZM33.621 54.5101C33.9585 54.1726 34.4005 54.0015 34.8426 54.0015C35.2847 54.0015 35.7315 54.1679 36.0642 54.5101C36.4017 54.8476 36.5728 55.2897 36.5728 55.7365C36.5728 56.1786 36.4017 56.6206 36.0642 56.9581C35.7267 57.2956 35.2847 57.4667 34.8426 57.4667C34.4005 57.4667 33.9585 57.2956 33.621 56.9581C33.2835 56.6206 33.1124 56.1786 33.1124 55.7365C33.1124 55.2897 33.2835 54.8476 33.621 54.5101Z" fill="#0078AE"/>
<path fill-rule="evenodd" clip-rule="evenodd" d="M32 29.8896H39.6409L39.5599 35.087L39.0835 35.512L38.6145 35.0946L38.1474 35.512L37.669 35.087L37.1925 35.512L36.7254 35.0946L36.2565 35.512L35.78 35.087L35.3016 35.512L34.8345 35.0946L34.3674 35.512L33.889 35.087L33.4125 35.512L32.9436 35.0946L32.4765 35.512L32 35.087V29.8896Z" fill="white"/>
</g>
</g>
<circle cx="62" cy="11" r="10.5" fill="#E31837" stroke="white"/>
<path d="M65 8L59 14M59 8L65 14" stroke="white" stroke-width="1.2" stroke-linecap="round"/>
<defs>
<clipPath id="clip0_5344_290704">
<rect width="91" height="145.807" fill="white" transform="translate(-10 -48)"/>
</clipPath>
</defs>
</svg>
