<svg width="85" height="79" viewBox="0 0 85 79" fill="none" xmlns="http://www.w3.org/2000/svg">
<mask id="mask0_5133_273229" style="mask-type:alpha" maskUnits="userSpaceOnUse" x="0" y="7" width="72" height="72">
<circle cx="36" cy="43" r="36" fill="#C4C4C4"/>
</mask>
<g mask="url(#mask0_5133_273229)">
<circle cx="36" cy="44" r="36" fill="#B7DBF5"/>
<g clip-path="url(#clip0_5133_273229)">
<path fill-rule="evenodd" clip-rule="evenodd" d="M63.1169 76.4111C63.2676 81.1005 63.3881 85.7181 63.4126 90.2167C59.1731 90.4774 53.4306 90.6266 50.6733 89.8031C45.9987 88.4094 42.7631 88.6209 28.4662 88.789C21.9283 88.8631 15.3908 88.6047 8.87891 88.0146C8.87891 85.8994 9.05406 83.4518 9.25559 81.3101C18.2714 76.8701 34.1277 72.7812 34.1277 72.7812L63.1094 76.4111H63.1169Z" fill="#B5302B"/>
<path d="M34.2617 14.3086H37.3429C39.4925 14.3116 41.5536 15.1672 43.0762 16.6887C44.5988 18.2103 45.4593 20.274 45.4697 22.4295V40.8074C45.4593 42.9629 44.5988 45.0267 43.0762 46.5482C41.5536 48.0697 39.4925 48.9254 37.3429 48.9284H34.2617C32.1121 48.9254 30.051 48.0697 28.5284 46.5482C27.0057 45.0267 26.1453 42.9629 26.1348 40.8074V22.4352C26.1453 20.2797 27.0057 18.2159 28.5284 16.6944C30.051 15.1729 32.1121 14.3172 34.2617 14.3143V14.3086ZM37.3429 15.8327H34.2617C32.5134 15.8362 30.8376 16.5333 29.6003 17.7719C28.3631 19.0104 27.665 20.6897 27.6585 22.4428V40.8206C27.6645 42.5739 28.3624 44.2534 29.5998 45.492C30.8372 46.7307 32.5133 47.4277 34.2617 47.4307H37.3429C39.0913 47.4277 40.7674 46.7307 42.0048 45.492C43.2421 44.2534 43.9401 42.5739 43.9461 40.8206V22.4352C43.9396 20.6821 43.2415 19.0029 42.0042 17.7643C40.767 16.5258 39.0911 15.8286 37.3429 15.8251V15.8327Z" fill="#85522C"/>
<path fill-rule="evenodd" clip-rule="evenodd" d="M11.6179 35.8896H60.9723L63.5902 86.2263H9L11.6179 35.8896Z" fill="#D18852"/>
<path d="M45.6126 53.3652L39.6325 47.3898C39.3805 47.1379 39.043 47 38.6865 47C38.3299 47 37.9924 47.1379 37.7405 47.3898L32.7349 52.4002L24.3922 60.7429C23.8693 61.2658 23.8693 62.1119 24.3922 62.6301L30.3675 68.6102C30.6195 68.8621 30.957 69 31.3135 69C31.6701 69 32.0076 68.8621 32.2595 68.6102L39.737 61.1327L45.6126 55.2571C46.1307 54.7342 46.1307 53.8881 45.6126 53.3652Z" fill="white"/>
<path d="M45.1886 53.793L39.2088 47.8132C38.9189 47.5232 38.453 47.5232 38.1631 47.8132L31.7079 54.2778L38.7287 61.2986L45.1886 54.8387C45.4738 54.5488 45.4738 54.0782 45.1886 53.793ZM39.9314 55.5185C39.5939 55.856 39.147 56.0271 38.705 56.0271C38.2629 56.0271 37.8208 55.8607 37.4786 55.5185C37.1411 55.181 36.97 54.7389 36.97 54.2968C36.97 53.8548 37.1411 53.4079 37.4786 53.0704C37.8161 52.733 38.2582 52.5618 38.705 52.5618C39.147 52.5618 39.5891 52.7282 39.9314 53.0704C40.2688 53.4079 40.44 53.85 40.44 54.2921C40.44 54.7389 40.2688 55.181 39.9314 55.5185Z" fill="#E31937"/>
<path d="M24.8159 61.1661C24.5259 61.456 24.5259 61.9219 24.8159 62.2118L30.7909 68.1869C30.9335 68.3295 31.1236 68.4008 31.3138 68.4008C31.5039 68.4008 31.6893 68.3295 31.8367 68.1869L38.2965 61.727L31.271 54.7109L24.8159 61.1661ZM29.9876 62.8868C29.6501 63.2243 29.2033 63.3907 28.7612 63.3907C28.3191 63.3907 27.8771 63.2196 27.5348 62.8868C27.1973 62.5493 27.0309 62.1073 27.0309 61.6652C27.0309 61.2231 27.1973 60.7763 27.5348 60.4388C27.8723 60.1013 28.3144 59.9349 28.7612 59.9349C29.2033 59.9349 29.6501 60.1061 29.9876 60.4436C30.3251 60.781 30.4914 61.2279 30.4914 61.6699C30.4962 62.1073 30.3251 62.5541 29.9876 62.8868ZM32.621 60.5101C32.9585 60.1726 33.4005 60.0015 33.8426 60.0015C34.2847 60.0015 34.7315 60.1679 35.0642 60.5101C35.4017 60.8476 35.5728 61.2897 35.5728 61.7365C35.5728 62.1786 35.4017 62.6206 35.0642 62.9581C34.7267 63.2956 34.2847 63.4667 33.8426 63.4667C33.4005 63.4667 32.9585 63.2956 32.621 62.9581C32.2835 62.6206 32.1124 62.1786 32.1124 61.7365C32.1124 61.2897 32.2835 60.8476 32.621 60.5101Z" fill="#0078AE"/>
<path fill-rule="evenodd" clip-rule="evenodd" d="M32 35.8896H39.6409L39.5599 41.087L39.0835 41.512L38.6145 41.0946L38.1474 41.512L37.669 41.087L37.1925 41.512L36.7254 41.0946L36.2565 41.512L35.78 41.087L35.3016 41.512L34.8345 41.0946L34.3674 41.512L33.889 41.087L33.4125 41.512L32.9436 41.0946L32.4765 41.512L32 41.087V35.8896Z" fill="white"/>
</g>
</g>
<g filter="url(#filter0_d_5133_273229)">
<circle cx="62" cy="17" r="10" fill="#38AF00"/>
<circle cx="62" cy="17" r="10.5" stroke="white"/>
</g>
<path d="M58 18.5294L60.3478 21L67 14" stroke="white" stroke-width="1.2" stroke-linecap="round" stroke-linejoin="round"/>
<defs>
<filter id="filter0_d_5133_273229" x="39" y="0" width="46" height="46" filterUnits="userSpaceOnUse" color-interpolation-filters="sRGB">
<feFlood flood-opacity="0" result="BackgroundImageFix"/>
<feColorMatrix in="SourceAlpha" type="matrix" values="0 0 0 0 0 0 0 0 0 0 0 0 0 0 0 0 0 0 127 0" result="hardAlpha"/>
<feOffset dy="6"/>
<feGaussianBlur stdDeviation="6"/>
<feComposite in2="hardAlpha" operator="out"/>
<feColorMatrix type="matrix" values="0 0 0 0 0 0 0 0 0 0 0 0 0 0 0 0 0 0 0.25 0"/>
<feBlend mode="normal" in2="BackgroundImageFix" result="effect1_dropShadow_5133_273229"/>
<feBlend mode="normal" in="SourceGraphic" in2="effect1_dropShadow_5133_273229" result="shape"/>
</filter>
<clipPath id="clip0_5133_273229">
<rect width="91" height="145.807" fill="white" transform="translate(-10 -42)"/>
</clipPath>
</defs>
</svg>
