<svg width="84" height="78" viewBox="0 0 84 78" fill="none" xmlns="http://www.w3.org/2000/svg">
<mask id="mask0_3023_451847" style="mask-type:alpha" maskUnits="userSpaceOnUse" x="0" y="6" width="72" height="72">
<circle cx="36" cy="42" r="36" fill="#C4C4C4"/>
</mask>
<g mask="url(#mask0_3023_451847)">
<circle cx="36" cy="43" r="36" fill="#B7DBF5"/>
<g clip-path="url(#clip0_3023_451847)">
<path fill-rule="evenodd" clip-rule="evenodd" d="M25.4288 1.33936C24.199 2.44418 26.2726 5.61324 26.2726 5.61324C26.2726 5.61324 45.2233 7.15811 45.1273 7.50183C45.0312 7.84555 44.4398 1.46967 43.8729 0.653798C42.7429 -0.957169 26.6568 0.223197 25.4288 1.32991V1.33936Z" fill="#B5302B"/>
<path fill-rule="evenodd" clip-rule="evenodd" d="M36.2455 18.0458L20.0615 12.3971C20.0615 12.3971 24.8265 10.2044 26.708 3.62833C28.5895 -2.94775 27.4746 -8.58142 27.4746 -8.58142C27.4746 -8.58142 33.4543 -8.06961 34.6691 -7.95441C35.8858 -8.06961 41.8656 -8.58142 41.8656 -8.58142C41.8656 -8.58142 40.7525 -2.94775 42.6321 3.62833C44.5118 10.2044 49.2786 12.3971 49.2786 12.3971L36.2455 18.0458V18.0458Z" fill="#F2CC9C"/>
<path fill-rule="evenodd" clip-rule="evenodd" d="M-2.38536 31.8741C-2.55487 31.8741 -9.91895 41.1169 -9.91895 41.1169L7.89231 43.9064V36.0423C7.89231 36.0423 -2.46636 31.8741 -2.39102 31.8741H-2.38536Z" fill="#DE7D60"/>
<path fill-rule="evenodd" clip-rule="evenodd" d="M47.0314 5.61328C47.0314 5.61328 62.7088 10.008 64.7353 11.1865C71.4703 15.0902 76.9115 40.1103 78.9851 46.4144C74.981 50.896 65.2796 52.3446 63.5262 51.3455C63.4941 51.3455 61.8537 43.4512 60.3941 42.6127C60.0325 59.746 61.4036 77.6574 61.4036 93.903C61.4036 95.2458 36.2659 96.9248 26.1351 94.7095C16.0044 92.4942 10.1621 96.464 7.88316 95.1193C5.60426 93.7746 7.88316 77.8727 7.88316 77.8727C7.88316 79.9766 9.45014 48.9225 7.45563 37.9025C0.946617 42.1046 -8.3291 36.1235 -8.3291 36.1235C-8.05224 33.7269 2.08229 12.72 6.45742 9.97215C10.4672 6.80687 22.4474 5.61328 24.474 5.61328L28.8453 9.65676L33.0077 8.54248L35.9966 16.3084C39.1984 13.0506 41.1477 8.50472 47.0239 5.61328H47.0314Z" fill="#0970BC"/>
<path fill-rule="evenodd" clip-rule="evenodd" d="M61.1169 78.4109C61.2676 83.1003 61.3881 87.7179 61.4126 92.2165C57.1731 92.4771 51.4306 92.6263 48.6733 91.8029C43.9987 90.4091 40.7631 90.6206 26.4662 90.7887C19.9283 90.8629 13.3908 90.6045 6.87891 90.0144C6.87891 87.8992 7.05406 85.4516 7.25559 83.3099C16.2714 78.8698 32.1277 74.781 32.1277 74.781L61.1094 78.4109H61.1169Z" fill="#B5302B"/>
<path fill-rule="evenodd" clip-rule="evenodd" d="M47.2822 8.21387L47.4479 16.3084L40.227 13.8041L36.5242 17.2942L35.9912 16.5954L40.227 11.3319L45.8169 12.754L47.2822 8.21387Z" fill="#2E5D97"/>
<path fill-rule="evenodd" clip-rule="evenodd" d="M29.4008 9.51322L33.0226 8.54248L33.1092 8.771C31.7174 11.2639 28.6907 16.637 28.4459 16.6615C28.1257 16.6955 26.5625 13.8041 26.5625 13.8041C27.4345 11.8079 28.4308 10.4443 29.397 9.51322H29.4008Z" fill="#2E5D97"/>
<path fill-rule="evenodd" clip-rule="evenodd" d="M56.5589 18.2177C56.5363 18.2631 48.7183 33.9629 25.1966 36.1235L25.1288 35.368C48.2343 33.2472 55.8658 17.9137 55.8884 17.8684L56.5589 18.2121V18.2177ZM12.6758 91.0796C12.6946 91.0796 19.2451 89.0456 33.8489 90.5432L33.7736 91.2987C19.3242 89.8161 12.9131 91.8029 12.8943 91.8086L12.6758 91.0853V91.0796ZM1.03076 23.3509C1.03076 23.3509 2.1043 25.9024 4.67701 34.6428L3.9538 34.8562C1.3905 26.1498 0.333915 23.638 0.332031 23.6305L1.03076 23.3509ZM4.54893 19.6663C4.56023 19.6757 8.65475 22.8505 6.75063 33.3057L6.01045 33.1735C7.83358 23.164 4.09127 20.2631 4.07997 20.2536L4.54893 19.6663ZM7.78085 40.0178C7.76013 39.8402 7.73942 39.6665 7.71493 39.4965C15.1412 20.7088 7.62076 11.3829 7.60005 11.3565L8.19332 10.89C8.21592 10.9183 16.1224 20.7239 8.24604 40.2047L7.78085 40.0159V40.0178Z" fill="#0970BC"/>
<path fill-rule="evenodd" clip-rule="evenodd" d="M25.4284 1.33936C26.2024 6.70296 28.9804 7.52638 33.0222 8.48768C33.0222 8.48768 27.2722 14.7842 26.3738 15.0656C25.4754 15.347 23.2926 13.1487 22.5618 8.70675C21.8311 4.26478 25.4284 1.34124 25.4284 1.34124V1.33936Z" fill="#0970BC"/>
<path fill-rule="evenodd" clip-rule="evenodd" d="M43.8725 0.663208C43.8725 0.663208 47.1911 4.31952 47.9783 5.89461C48.7656 7.46969 47.9783 15.4547 47.9783 15.4547L40.3864 12.025L34.6006 18.4915C34.6006 18.4915 35.838 15.4547 39.5483 11.0675C43.2586 6.68026 45.0101 5.6132 43.8801 0.663208H43.8725Z" fill="#0970BC"/>
<path d="M71.4853 29.2263C71.4645 29.2414 64.2888 34.6031 64.2888 42.0782H63.5355C63.5355 34.2292 71.0144 28.6408 71.0351 28.6238L71.4871 29.2263H71.4853ZM64.2135 12.4443C64.1946 12.4896 57.4691 28.3387 60.765 40.5843L60.038 40.7732C56.6724 28.2801 63.4978 12.1969 63.5166 12.1497L64.2135 12.4405V12.4443ZM65.82 20.0817C65.8087 20.1157 61.7236 31.8987 62.9686 37.8137L62.2303 37.9667C60.9439 31.8514 65.0968 19.8721 65.1081 19.8362L65.82 20.0799V20.0817Z" fill="#0970BC"/>
<path fill-rule="evenodd" clip-rule="evenodd" d="M32.2615 14.2101C32.2615 14.2101 36.7816 13.6057 39.1171 15.0165C41.4525 16.4273 39.7047 18.0081 37.422 18.0383C35.1393 18.0685 32.2559 14.0722 32.2559 14.2063L32.2615 14.2101Z" fill="#EDAC59"/>
<path d="M32.2616 16.3083H35.3428C37.4924 16.3113 39.5535 17.167 41.0761 18.6885C42.5988 20.21 43.4592 22.2738 43.4697 24.4293V42.8072C43.4592 44.9627 42.5988 47.0265 41.0761 48.548C39.5535 50.0695 37.4924 50.9251 35.3428 50.9281H32.2616C30.112 50.9251 28.0509 50.0695 26.5283 48.548C25.0057 47.0265 24.1452 44.9627 24.1348 42.8072V24.435C24.1452 22.2795 25.0057 20.2157 26.5283 18.6942C28.0509 17.1726 30.112 16.317 32.2616 16.314V16.3083ZM35.3428 17.8324H32.2616C30.5133 17.8359 28.8375 18.5331 27.6003 19.7717C26.363 21.0102 25.6649 22.6894 25.6584 24.4425V42.8204C25.6644 44.5736 26.3624 46.2531 27.5997 47.4918C28.8371 48.7305 30.5132 49.4275 32.2616 49.4305H35.3428C37.0912 49.4275 38.7673 48.7305 40.0047 47.4918C41.2421 46.2531 41.9401 44.5736 41.946 42.8204V24.435C41.9396 22.6819 41.2414 21.0027 40.0042 19.7641C38.7669 18.5255 37.0911 17.8284 35.3428 17.8249V17.8324Z" fill="#F2D5BD"/>
<path fill-rule="evenodd" clip-rule="evenodd" d="M20.0611 23.1697C20.0611 23.1697 24.9014 17.3887 27.3215 15.4397C29.7417 13.4906 33.5255 13.8268 33.5255 13.8268C33.5255 13.8268 40.6296 18.7371 40.0251 19.774C39.4205 20.8108 38.0757 25.4889 35.3863 27.0677C32.6968 28.6466 30.2804 28.3444 27.9939 28.4464C25.7075 28.5484 13.7121 39.4701 9.81351 43.4362C5.91488 47.4022 1.21017 52.9131 -6.11624 53.0472C-13.4427 53.1813 -13.3749 43.5023 -8.94135 39.9404C-4.50784 36.3785 14.0361 27.842 20.063 23.1697H20.0611Z" fill="#F2CC9C"/>
<path d="M33.7572 17.0713L38.5298 20.7163L38.0683 21.3206L33.2958 17.6756L33.7572 17.0713ZM28.7173 23.3716L33.4879 27.0185L33.0265 27.6229L28.2559 23.976L28.7173 23.3716ZM30.6779 21.5491L35.4504 25.1941L34.989 25.7985L30.2165 22.1535L30.6779 21.5491ZM32.4408 19.7248L37.2114 23.3716L36.75 23.976L31.9793 20.3291L32.4408 19.7248Z" fill="#EDAB59"/>
<path fill-rule="evenodd" clip-rule="evenodd" d="M9.12378 37.8893H58.4781L61.0961 88.2259H6.50586L9.12378 37.8893Z" fill="#D18852"/>
<path d="M42.6467 54.7862L37.2106 49.3543C36.9815 49.1253 36.6747 49 36.3506 49C36.0265 49 35.7197 49.1253 35.4907 49.3543L30.9404 53.909L23.3565 61.4928C22.8812 61.9682 22.8812 62.7374 23.3565 63.2084L28.7884 68.6446C29.0174 68.8736 29.3242 68.9989 29.6483 68.9989C29.9724 68.9989 30.2792 68.8736 30.5082 68.6446L37.3056 61.8472L42.6467 56.5061C43.1178 56.0307 43.1178 55.2615 42.6467 54.7862Z" fill="white"/>
<path d="M42.262 55.175L36.8258 49.7388C36.5622 49.4752 36.1387 49.4752 35.8751 49.7388L30.0068 55.6158L36.3894 61.9983L42.262 56.1257C42.5213 55.8621 42.5213 55.4343 42.262 55.175ZM37.4827 56.7436C37.1759 57.0505 36.7697 57.206 36.3678 57.206C35.9659 57.206 35.564 57.0548 35.2529 56.7436C34.9461 56.4368 34.7905 56.035 34.7905 55.6331C34.7905 55.2312 34.9461 54.825 35.2529 54.5182C35.5597 54.2114 35.9616 54.0558 36.3678 54.0558C36.7697 54.0558 37.1715 54.207 37.4827 54.5182C37.7895 54.825 37.945 55.2269 37.945 55.6288C37.945 56.035 37.7895 56.4368 37.4827 56.7436Z" fill="#E31937"/>
<path d="M23.7416 61.8776C23.478 62.1412 23.478 62.5647 23.7416 62.8283L29.1735 68.2601C29.3031 68.3898 29.476 68.4546 29.6488 68.4546C29.8217 68.4546 29.9902 68.3898 30.1242 68.2601L35.9968 62.3875L29.61 56.0093L23.7416 61.8776ZM28.4432 63.4419C28.1364 63.7487 27.7302 63.8999 27.3283 63.8999C26.9264 63.8999 26.5246 63.7444 26.2134 63.4419C25.9066 63.1351 25.7554 62.7332 25.7554 62.3313C25.7554 61.9294 25.9066 61.5232 26.2134 61.2164C26.5202 60.9096 26.9221 60.7584 27.3283 60.7584C27.7302 60.7584 28.1364 60.9139 28.4432 61.2207C28.75 61.5276 28.9013 61.9338 28.9013 62.3356C28.9056 62.7332 28.75 63.1394 28.4432 63.4419ZM30.8372 61.2812C31.144 60.9744 31.5459 60.8189 31.9478 60.8189C32.3496 60.8189 32.7559 60.9701 33.0583 61.2812C33.3652 61.5881 33.5207 61.9899 33.5207 62.3961C33.5207 62.798 33.3652 63.1999 33.0583 63.5067C32.7515 63.8135 32.3496 63.9691 31.9478 63.9691C31.5459 63.9691 31.144 63.8135 30.8372 63.5067C30.5304 63.1999 30.3748 62.798 30.3748 62.3961C30.3748 61.9899 30.5304 61.5881 30.8372 61.2812Z" fill="#0078AE"/>
<path fill-rule="evenodd" clip-rule="evenodd" d="M29.9756 37.8893H37.6165L37.5355 43.0867L37.059 43.5116L36.5901 43.0942L36.123 43.5116L35.6446 43.0867L35.1681 43.5116L34.701 43.0942L34.2321 43.5116L33.7556 43.0867L33.2772 43.5116L32.8101 43.0942L32.343 43.5116L31.8646 43.0867L31.3881 43.5116L30.9192 43.0942L30.4521 43.5116L29.9756 43.0867V37.8893Z" fill="white"/>
<path fill-rule="evenodd" clip-rule="evenodd" d="M76.0906 48.7053C76.569 50.7827 76.9438 50.6165 76.7385 52.7959C76.5332 54.9754 76.972 68.0784 72.7702 77.5365C68.5683 86.9945 69.4724 86.8756 66.2329 88.8907C62.9935 90.9058 61.5941 93.4422 58.85 93.1797C56.1059 92.9172 51 91.7198 48.7814 90.7245C46.5628 89.7292 43.6416 88.2259 43.6416 88.2259H61.0931L60.756 81.563C60.756 81.563 63.1668 81.5044 63.4286 80.7169C64.5379 77.3892 66.9505 55.2964 65.8393 51.6326C70.4536 51.3738 73.8569 49.744 76.0869 48.6996L76.0906 48.7053Z" fill="#F2CC9C"/>
<path fill-rule="evenodd" clip-rule="evenodd" d="M76.0884 48.7053C76.4388 50.2162 76.7344 50.5448 76.7872 51.457C72.3574 54.1709 68.2705 54.1784 66.1083 53.9121C66.0707 52.9036 65.9878 52.1199 65.8428 51.6458C70.4571 51.3871 73.8604 49.7573 76.0884 48.7129V48.7053Z" fill="#EDAB59"/>
<path d="M67.4488 54.2483C67.4488 54.2483 70.8521 52.5788 74.3081 52.1444L74.4023 52.8696C71.0856 53.287 67.7878 54.9018 67.7784 54.9074L67.4488 54.2483ZM46.9198 88.4714L58.5968 91.3648L58.4085 92.0749L46.7314 89.1815L46.9198 88.4714ZM64.7405 85.9048C64.7405 85.9048 62.5538 88.8529 61.145 89.4592C60.806 89.6046 60.0696 89.5951 59.9811 89.8369C59.9318 89.9681 59.9169 90.1099 59.9378 90.2486C59.9544 90.364 60.0026 90.4726 60.0772 90.5621C60.1275 90.6162 60.1885 90.6592 60.2562 90.6885C60.324 90.7178 60.397 90.7326 60.4708 90.7321C61.4822 90.7585 63.8816 89.7878 63.8873 89.7878L64.0643 90.3543C64.0643 90.3543 61.6517 91.4969 60.4539 91.4667C60.2762 91.4659 60.1006 91.4279 59.9384 91.355C59.7763 91.2821 59.6311 91.1761 59.5122 91.0437C59.3436 90.8516 59.2338 90.6149 59.1957 90.3619C59.1577 90.1036 59.1855 89.8397 59.2767 89.5951V89.5951C59.4293 89.1796 60.2975 89.0286 60.8456 88.7944C62.0717 88.2675 64.1246 85.4969 64.1302 85.4893L64.7461 85.9105L64.7405 85.9048Z" fill="#EDAB59"/>
</g>
</g>
<g filter="url(#filter0_d_3023_451847)">
<circle cx="62" cy="16" r="10" fill="#38AF00"/>
<circle cx="62" cy="16" r="9.5" stroke="white"/>
</g>
<path d="M58 17.5294L60.3478 20L67 13" stroke="white" stroke-width="1.2" stroke-linecap="round" stroke-linejoin="round"/>
<defs>
<filter id="filter0_d_3023_451847" x="40" y="0" width="44" height="44" filterUnits="userSpaceOnUse" color-interpolation-filters="sRGB">
<feFlood flood-opacity="0" result="BackgroundImageFix"/>
<feColorMatrix in="SourceAlpha" type="matrix" values="0 0 0 0 0 0 0 0 0 0 0 0 0 0 0 0 0 0 127 0" result="hardAlpha"/>
<feOffset dy="6"/>
<feGaussianBlur stdDeviation="6"/>
<feComposite in2="hardAlpha" operator="out"/>
<feColorMatrix type="matrix" values="0 0 0 0 0 0 0 0 0 0 0 0 0 0 0 0 0 0 0.25 0"/>
<feBlend mode="normal" in2="BackgroundImageFix" result="effect1_dropShadow_3023_451847"/>
<feBlend mode="normal" in="SourceGraphic" in2="effect1_dropShadow_3023_451847" result="shape"/>
</filter>
<clipPath id="clip0_3023_451847">
<rect width="91" height="145.807" fill="white" transform="translate(-12 -40)"/>
</clipPath>
</defs>
</svg>
