<svg width="72" height="72" viewBox="0 0 72 72" fill="none" xmlns="http://www.w3.org/2000/svg">
<g clip-path="url(#clip0_2386_20893)">
<path d="M38.0024 35.9975L67.6595 53.121C70.5064 47.8617 71.9973 41.9755 71.9973 35.995C71.9973 30.0144 70.5064 24.1282 67.6595 18.8689L38.0024 35.9975Z" fill="#DFEEF9"/>
<path d="M4.34509 18.8739C1.49821 24.1332 0.00732422 30.0194 0.00732422 36C0.00732422 41.9805 1.49821 47.8667 4.34509 53.126L34.0021 35.9975L4.34509 18.8739Z" fill="#DFEEF9"/>
<path d="M5.33008 54.8615C8.46556 59.9568 12.8195 64.1916 17.9994 67.1844C23.1793 70.1772 29.0224 71.8339 35.0021 72.005V37.7279L5.33008 54.8615Z" fill="#DFEEF9"/>
<path d="M37.0024 37.7279V72.005C42.9804 71.8405 48.8229 70.1876 54.0013 67.196C59.1796 64.2043 63.5303 59.9684 66.6595 54.8715L37.0024 37.7279Z" fill="#DFEEF9"/>
<path d="M38.0024 35.9975L67.6595 53.1211C70.5064 47.8618 71.9973 41.9756 71.9973 35.995C71.9973 30.0145 70.5064 24.1283 67.6595 18.869L38.0024 35.9975Z" fill="#DFEEF9"/>
<path d="M54.0036 4.816C48.8291 1.81116 42.9838 0.1519 37.0024 -0.0100098V34.2671L66.6745 17.1336C63.5457 12.0338 59.1895 7.79909 54.0036 4.816Z" fill="#DFEEF9"/>
<path d="M35.0023 34.2671V-0.0100098C29.0228 0.155663 23.1792 1.81065 18.0006 4.80503C12.8221 7.79941 8.47229 12.0386 5.34521 17.1386L35.0023 34.2671Z" fill="#DFEEF9"/>
<g clip-path="url(#clip1_2386_20893)">
<path d="M38.0024 35.9975L67.6595 53.121C70.5064 47.8617 71.9973 41.9755 71.9973 35.995C71.9973 30.0144 70.5064 24.1282 67.6595 18.8689L38.0024 35.9975Z" fill="#DFEEF9"/>
<path d="M4.34509 18.8739C1.49821 24.1332 0.00732422 30.0194 0.00732422 36C0.00732422 41.9805 1.49821 47.8667 4.34509 53.126L34.0021 35.9975L4.34509 18.8739Z" fill="#DFEEF9"/>
<path d="M5.33008 54.8615C8.46556 59.9568 12.8195 64.1916 17.9994 67.1844C23.1793 70.1772 29.0224 71.8339 35.0021 72.005V37.7279L5.33008 54.8615Z" fill="#DFEEF9"/>
<path d="M37.0024 37.7279V72.005C42.9804 71.8405 48.8229 70.1876 54.0013 67.196C59.1796 64.2043 63.5303 59.9684 66.6595 54.8715L37.0024 37.7279Z" fill="#DFEEF9"/>
<path d="M38.0024 35.9975L67.6595 53.1211C70.5064 47.8618 71.9973 41.9756 71.9973 35.995C71.9973 30.0145 70.5064 24.1283 67.6595 18.869L38.0024 35.9975Z" fill="#DFEEF9"/>
<path d="M54.0036 4.816C48.8291 1.81116 42.9838 0.1519 37.0024 -0.0100098V34.2671L66.6745 17.1336C63.5457 12.0338 59.1895 7.79909 54.0036 4.816Z" fill="#DFEEF9"/>
<path d="M35.0023 34.2671V-0.0100098C29.0228 0.155663 23.1792 1.81065 18.0006 4.80503C12.8221 7.79941 8.47229 12.0386 5.34521 17.1386L35.0023 34.2671Z" fill="#DFEEF9"/>
<path d="M5.33057 54.8614C8.46604 59.9567 12.82 64.1916 17.9999 67.1844C23.1798 70.1772 29.0229 71.8338 35.0026 72.005V37.7278L5.33057 54.8614Z" fill="white"/>
<path d="M5.33057 54.8614C8.46604 59.9567 12.82 64.1916 17.9999 67.1844C23.1798 70.1772 29.0229 71.8338 35.0026 72.005V37.7278L5.33057 54.8614ZM32.5025 69.3294C27.8324 68.8327 23.3183 67.3624 19.2514 65.0134C15.1845 62.6644 11.6551 59.4888 8.89081 55.6916L10.891 54.5364C13.4333 57.9983 16.6671 60.8942 20.3874 63.0404C24.1076 65.1866 28.2332 66.5363 32.5025 67.0039V69.3294ZM21.1417 61.7428C17.65 59.7282 14.6087 57.0184 12.206 53.7812L32.5025 42.0587V65.5036C28.4984 65.0394 24.6319 63.7595 21.1417 61.7428Z" fill="#0078AE"/>
<path d="M24.6467 58.1071C25.9944 58.1071 27.0869 57.0144 27.0869 55.6666C27.0869 54.3187 25.9944 53.2261 24.6467 53.2261C23.299 53.2261 22.2065 54.3187 22.2065 55.6666C22.2065 57.0144 23.299 58.1071 24.6467 58.1071Z" fill="#0078AE"/>
<path d="M27.642 51.7008C28.3158 51.7008 28.862 51.1544 28.862 50.4805C28.862 49.8066 28.3158 49.2603 27.642 49.2603C26.9681 49.2603 26.4219 49.8066 26.4219 50.4805C26.4219 51.1544 26.9681 51.7008 27.642 51.7008Z" fill="#E31937"/>
<path d="M37.0024 37.7278V72.005C42.9804 71.8405 48.8229 70.1876 54.0013 67.1959C59.1796 64.2043 63.5303 59.9683 66.6595 54.8714L37.0024 37.7278Z" fill="white"/>
<path d="M37.0024 37.7278V72.005C42.9804 71.8405 48.8229 70.1876 54.0013 67.1959C59.1796 64.2043 63.5303 59.9683 66.6595 54.8714L37.0024 37.7278ZM39.5026 42.0587L59.794 53.7762C57.3833 57.0045 54.3413 59.7089 50.853 61.725C47.3648 63.741 43.5031 65.0266 39.5026 65.5036V42.0587ZM39.5026 69.3194V67.0039C43.7668 66.5213 47.8857 65.1641 51.6016 63.0171C55.3176 60.8702 58.5508 57.9797 61.0991 54.5263L63.0993 55.6816C60.3465 59.4869 56.8219 62.6685 52.7558 65.0185C48.6898 67.3686 44.1737 68.8341 39.5026 69.3194Z" fill="#0078AE"/>
<path d="M47.3533 58.1071C48.7009 58.1071 49.7934 57.0144 49.7934 55.6666C49.7934 54.3187 48.7009 53.2261 47.3533 53.2261C46.0056 53.2261 44.9131 54.3187 44.9131 55.6666C44.9131 57.0144 46.0056 58.1071 47.3533 58.1071Z" fill="#0078AE"/>
<path d="M44.3578 51.7008C45.0316 51.7008 45.5779 51.1544 45.5779 50.4805C45.5779 49.8066 45.0316 49.2603 44.3578 49.2603C43.6839 49.2603 43.1377 49.8066 43.1377 50.4805C43.1377 51.1544 43.6839 51.7008 44.3578 51.7008Z" fill="#E31937"/>
<path d="M38.0024 35.9975L67.6595 53.121C70.5064 47.8617 71.9973 41.9755 71.9973 35.995C71.9973 30.0144 70.5064 24.1282 67.6595 18.8689L38.0024 35.9975Z" fill="white"/>
<path d="M38.0024 35.9975L67.6595 53.121C70.5064 47.8617 71.9973 41.9755 71.9973 35.995C71.9973 30.0144 70.5064 24.1282 67.6595 18.8689L38.0024 35.9975ZM43.0028 35.9975L63.2942 24.28C64.8817 27.9825 65.7002 31.969 65.7002 35.9975C65.7002 40.026 64.8817 44.0125 63.2942 47.7149L43.0028 35.9975ZM66.5994 49.6253L64.5993 48.4701C66.3125 44.5351 67.1966 40.2893 67.1966 35.9975C67.1966 31.7056 66.3125 27.4598 64.5993 23.5249L66.5994 22.3696C68.5156 26.6573 69.506 31.301 69.506 35.9975C69.506 40.6939 68.5156 45.3376 66.5994 49.6253Z" fill="#0078AE"/>
<path d="M58.7087 38.443C60.0564 38.443 61.1489 37.3503 61.1489 36.0025C61.1489 34.6546 60.0564 33.562 58.7087 33.562C57.3611 33.562 56.2686 34.6546 56.2686 36.0025C56.2686 37.3503 57.3611 38.443 58.7087 38.443Z" fill="#0078AE"/>
<path d="M52.7186 37.2227C53.3925 37.2227 53.9387 36.6764 53.9387 36.0025C53.9387 35.3286 53.3925 34.7822 52.7186 34.7822C52.0448 34.7822 51.4985 35.3286 51.4985 36.0025C51.4985 36.6764 52.0448 37.2227 52.7186 37.2227Z" fill="#E31937"/>
<path d="M54.0036 4.816C48.8291 1.81116 42.9838 0.1519 37.0024 -0.0100098V34.2671L66.6745 17.1336C63.5457 12.0338 59.1895 7.79909 54.0036 4.816Z" fill="white"/>
<path d="M54.0036 4.816C48.8291 1.81116 42.9838 0.1519 37.0024 -0.0100098V34.2671L66.6745 17.1336C63.5457 12.0338 59.1895 7.79909 54.0036 4.816ZM39.5026 29.9362V6.49135C43.507 6.95937 47.3734 8.24108 50.8645 10.2578C54.3556 12.2745 57.3977 14.9836 59.804 18.2188L39.5026 29.9362ZM51.6135 8.93186C47.8927 6.79416 43.7687 5.45224 39.5026 4.99103V2.66555C44.1727 3.16228 48.6868 4.63257 52.7537 6.98158C56.8206 9.33059 60.35 12.5061 63.1143 16.3034L61.1141 17.4586C58.5708 13.9952 55.3355 11.0984 51.6135 8.95186V8.93186Z" fill="#0078AE"/>
<path d="M47.3533 18.7689C48.7009 18.7689 49.7934 17.6762 49.7934 16.3284C49.7934 14.9805 48.7009 13.8879 47.3533 13.8879C46.0056 13.8879 44.9131 14.9805 44.9131 16.3284C44.9131 17.6762 46.0056 18.7689 47.3533 18.7689Z" fill="#0078AE"/>
<path d="M44.3578 22.7397C45.0316 22.7397 45.5779 22.1934 45.5779 21.5194C45.5779 20.8455 45.0316 20.2992 44.3578 20.2992C43.6839 20.2992 43.1377 20.8455 43.1377 21.5194C43.1377 22.1934 43.6839 22.7397 44.3578 22.7397Z" fill="#E31937"/>
</g>
</g>
<defs>
<clipPath id="clip0_2386_20893">
<rect width="72" height="72" fill="white"/>
</clipPath>
<clipPath id="clip1_2386_20893">
<rect width="72" height="72" fill="white"/>
</clipPath>
</defs>
</svg>
