<svg width="72" height="72" viewBox="0 0 72 72" fill="none" xmlns="http://www.w3.org/2000/svg">
<g clip-path="url(#clip0_2386_20722)">
<path d="M38.0024 35.9975L67.6595 53.121C70.5064 47.8617 71.9973 41.9755 71.9973 35.995C71.9973 30.0144 70.5064 24.1282 67.6595 18.8689L38.0024 35.9975Z" fill="#DFEEF9"/>
<path d="M4.34509 18.8739C1.49821 24.1332 0.00732422 30.0194 0.00732422 36C0.00732422 41.9805 1.49821 47.8667 4.34509 53.126L34.0021 35.9975L4.34509 18.8739Z" fill="#DFEEF9"/>
<path d="M5.33008 54.8615C8.46556 59.9568 12.8195 64.1916 17.9994 67.1844C23.1793 70.1772 29.0224 71.8339 35.0021 72.005V37.7279L5.33008 54.8615Z" fill="#DFEEF9"/>
<path d="M37.0024 37.7279V72.005C42.9804 71.8405 48.8229 70.1876 54.0013 67.196C59.1796 64.2043 63.5303 59.9684 66.6595 54.8715L37.0024 37.7279Z" fill="#DFEEF9"/>
<path d="M38.0024 35.9975L67.6595 53.1211C70.5064 47.8618 71.9973 41.9756 71.9973 35.995C71.9973 30.0145 70.5064 24.1283 67.6595 18.869L38.0024 35.9975Z" fill="#DFEEF9"/>
<path d="M54.0036 4.816C48.8291 1.81116 42.9838 0.1519 37.0024 -0.0100098V34.2671L66.6745 17.1336C63.5457 12.0338 59.1895 7.79909 54.0036 4.816Z" fill="#DFEEF9"/>
<path d="M35.0023 34.2671V-0.0100098C29.0228 0.155663 23.1792 1.81065 18.0006 4.80503C12.8221 7.79941 8.47229 12.0386 5.34521 17.1386L35.0023 34.2671Z" fill="#DFEEF9"/>
</g>
<defs>
<clipPath id="clip0_2386_20722">
<rect width="72" height="72" fill="white"/>
</clipPath>
</defs>
</svg>
