<svg width="20" height="20" viewBox="0 0 20 20" fill="none" xmlns="http://www.w3.org/2000/svg">
<path fill-rule="evenodd" clip-rule="evenodd" d="M1.18486 5.27251C0.428863 6.68029 0 8.29004 0 10C0 11.6987 0.423222 13.2985 1.16994 14.6996L9.33841 9.98174L1.18486 5.27251ZM1.46129 4.79042L9.72219 9.56166V1.95084e-06C6.2231 0.0954819 3.17278 1.98908 1.46129 4.79042ZM10.2777 10.5243V20C13.7504 19.9053 16.781 18.0395 18.4996 15.273L10.2777 10.5243ZM18.7797 14.793L10.4495 9.98174L18.7645 5.1793C19.5519 6.60906 20 8.25218 20 10C20 11.7365 19.5577 13.3697 18.7797 14.793ZM9.72219 20C6.21186 19.9042 3.1532 17.9987 1.44484 15.1826L9.72219 10.4018V20ZM10.2777 0C13.7392 0.0944274 16.7614 1.94846 18.4829 4.70017L10.2777 9.43922V0Z" fill="#DDDDDD"/>
<mask id="mask0_1558_601351" style="mask-type:alpha" maskUnits="userSpaceOnUse" x="1" y="0" width="19" height="20">
<path d="M10 0C11.7616 2.10074e-08 13.492 0.46537 15.016 1.34901C16.54 2.23265 17.8035 3.5032 18.6787 5.03208C19.5539 6.56095 20.0096 8.29389 19.9998 10.0555C19.9901 11.8171 19.5151 13.5449 18.623 15.0639C17.7309 16.583 16.4534 17.8395 14.9197 18.7061C13.386 19.5728 11.6505 20.0189 9.889 19.9994C8.12747 19.9798 6.40236 19.4953 4.88827 18.5948C3.37418 17.6943 2.12484 16.4098 1.2667 14.8713L10 10V0Z" fill="#C4C4C4"/>
</mask>
<g mask="url(#mask0_1558_601351)">
<path fill-rule="evenodd" clip-rule="evenodd" d="M1.18486 5.27251C0.428863 6.68029 0 8.29004 0 10C0 11.6987 0.423222 13.2985 1.16994 14.6996L9.33841 9.98174L1.18486 5.27251ZM1.46129 4.79042L9.72219 9.56166V1.95084e-06C6.2231 0.0954819 3.17278 1.98908 1.46129 4.79042ZM10.2777 10.5243V20C13.7504 19.9053 16.781 18.0395 18.4996 15.273L10.2777 10.5243ZM18.7797 14.793L10.4495 9.98174L18.7645 5.1793C19.5519 6.60906 20 8.25218 20 10C20 11.7365 19.5577 13.3697 18.7797 14.793ZM9.72219 20C6.21186 19.9042 3.1532 17.9987 1.44484 15.1826L9.72219 10.4018V20ZM10.2777 0C13.7392 0.0944274 16.7614 1.94846 18.4829 4.70017L10.2777 9.43922V0Z" fill="#666666"/>
</g>
</svg>
