<svg width="20" height="20" viewBox="0 0 20 20" fill="none" xmlns="http://www.w3.org/2000/svg">
<path fill-rule="evenodd" clip-rule="evenodd" d="M1.18486 5.27251C0.428863 6.68029 0 8.29004 0 10C0 11.6987 0.423222 13.2985 1.16994 14.6996L9.33841 9.98174L1.18486 5.27251ZM1.46129 4.79042L9.72219 9.56166V1.95084e-06C6.2231 0.0954819 3.17278 1.98908 1.46129 4.79042ZM10.2777 10.5243V20C13.7504 19.9053 16.781 18.0395 18.4996 15.273L10.2777 10.5243ZM18.7797 14.793L10.4495 9.98174L18.7645 5.1793C19.5519 6.60906 20 8.25218 20 10C20 11.7365 19.5577 13.3697 18.7797 14.793ZM9.72219 20C6.21186 19.9042 3.1532 17.9987 1.44484 15.1826L9.72219 10.4018V20ZM10.2777 0C13.7392 0.0944274 16.7614 1.94846 18.4829 4.70017L10.2777 9.43922V0Z" fill="#DDDDDD"/>
<mask id="mask0_1558_601388" style="mask-type:alpha" maskUnits="userSpaceOnUse" x="0" y="0" width="20" height="20">
<path d="M10 0C12.2005 2.62405e-08 14.3395 0.725811 16.0856 2.06495C17.8317 3.40408 19.0874 5.28176 19.658 7.40699C20.2286 9.53221 20.0822 11.7863 19.2417 13.8199C18.4011 15.8535 16.9132 17.5531 15.0086 18.6553C13.1041 19.7574 10.8891 20.2006 8.70712 19.9161C6.5251 19.6316 4.49785 18.6353 2.93954 17.0817C1.38123 15.528 0.378883 13.5037 0.0878485 11.3226C-0.203186 9.14144 0.233339 6.92519 1.32977 5.01731L10 10V0Z" fill="#C4C4C4"/>
</mask>
<g mask="url(#mask0_1558_601388)">
<path fill-rule="evenodd" clip-rule="evenodd" d="M1.18486 5.27251C0.428863 6.68029 0 8.29004 0 10C0 11.6987 0.423222 13.2985 1.16994 14.6996L9.33841 9.98174L1.18486 5.27251ZM1.46129 4.79042L9.72219 9.56166V1.95084e-06C6.2231 0.0954819 3.17278 1.98908 1.46129 4.79042ZM10.2777 10.5243V20C13.7504 19.9053 16.781 18.0395 18.4996 15.273L10.2777 10.5243ZM18.7797 14.793L10.4495 9.98174L18.7645 5.1793C19.5519 6.60906 20 8.25218 20 10C20 11.7365 19.5577 13.3697 18.7797 14.793ZM9.72219 20C6.21186 19.9042 3.1532 17.9987 1.44484 15.1826L9.72219 10.4018V20ZM10.2777 0C13.7392 0.0944274 16.7614 1.94846 18.4829 4.70017L10.2777 9.43922V0Z" fill="#666666"/>
</g>
</svg>
