<svg width="22" height="20" viewBox="0 0 22 20" fill="none" xmlns="http://www.w3.org/2000/svg">
<path d="M8.78393 16.9299C9.32998 17.3673 10.1395 16.9778 10.1383 16.2781L10.1226 6.98142C10.1223 6.80187 9.97972 6.65486 9.80026 6.64905C6.53506 6.54336 3.42435 8.04037 1.46975 10.6581C1.36232 10.8019 1.38826 11.0051 1.52839 11.1173L8.78393 16.9299Z" fill="#DDDDDD" stroke="#666666" stroke-width="0.833331" stroke-linecap="round" stroke-linejoin="round"/>
<path d="M13.2161 12.5178C12.67 12.9552 11.8605 12.5657 11.8617 11.866L11.8774 2.56931C11.8777 2.38976 12.0203 2.24275 12.1997 2.23694C15.4649 2.13125 18.5756 3.62826 20.5302 6.24594C20.6377 6.38982 20.6117 6.59295 20.4716 6.70521L13.2161 12.5178Z" fill="#DDDDDD" stroke="#666666" stroke-width="0.833331" stroke-linecap="round" stroke-linejoin="round"/>
<path d="M3.79829 8.28227L5.55056 9.26596C5.80278 9.40756 6.11901 9.25537 6.16572 8.96992L6.49023 6.9868L3.79829 8.28227Z" fill="#666666"/>
<path d="M18.2017 3.87016L16.4494 4.85385C16.1972 4.99545 15.881 4.84326 15.8343 4.55781L15.5098 2.57469L18.2017 3.87016Z" fill="#666666"/>
</svg>
